<svg xmlns="http://www.w3.org/2000/svg" xmlns:xlink="http://www.w3.org/1999/xlink" width="445" height="445" viewBox="0 0 445 445" fill="none"><g opacity="1"  transform="translate(0 0)  rotate(0)"><g opacity="1"  transform="translate(26 21)  rotate(0)"><path id="Ellipse 46" fill-rule="evenodd" fill="url(#linear_0)" opacity="1" d="M203.52 0C93.62 0 4.52002 89.1 4.52002 199C4.52002 308.9 93.62 398 203.52 398C313.42 398 402.52 308.9 402.52 199C402.52 89.1 313.42 0 203.52 0Z"></path><path  id="Ellipse 48" style="fill:#8BB2FF; opacity:1;" d="M377.41,85c-4.369,0 -7.91,3.5414 -7.91,7.91c0,4.3686 3.541,7.91 7.91,7.91c4.369,0 7.91,-3.5414 7.91,-7.91c0,-4.3686 -3.541,-7.91 -7.91,-7.91zM377.41,77c8.787,0 15.91,7.1232 15.91,15.91c0,8.787 -7.123,15.91 -15.91,15.91c-8.787,0 -15.91,-7.123 -15.91,-15.91c0,-8.7868 7.123,-15.91 15.91,-15.91z"></path><path  id="Ellipse 52" style="fill:#8BB2FF; opacity:1;" d="M208.5,367c-3.038,0 -5.5,2.462 -5.5,5.5c0,3.038 2.462,5.5 5.5,5.5c3.038,0 5.5,-2.462 5.5,-5.5c0,-3.038 -2.462,-5.5 -5.5,-5.5zM208.5,359c7.456,0 13.5,6.044 13.5,13.5c0,7.456 -6.044,13.5 -13.5,13.5c-7.456,0 -13.5,-6.044 -13.5,-13.5c0,-7.456 6.044,-13.5 13.5,-13.5z"></path><path  id="Ellipse 53" style="fill:#8BB2FF; opacity:1;" d="M350.5,180c-3.038,0 -5.5,2.462 -5.5,5.5c0,3.038 2.462,5.5 5.5,5.5c3.038,0 5.5,-2.462 5.5,-5.5c0,-3.038 -2.462,-5.5 -5.5,-5.5zM350.5,172c7.456,0 13.5,6.044 13.5,13.5c0,7.456 -6.044,13.5 -13.5,13.5c-7.456,0 -13.5,-6.044 -13.5,-13.5c0,-7.456 6.044,-13.5 13.5,-13.5z"></path><path id="Ellipse 51" fill-rule="evenodd" fill="url(#linear_1)" opacity="1" d="M11.91 159C5.33 159 0 164.33 0 170.91C0 177.49 5.33 182.82 11.91 182.82C18.49 182.82 23.82 177.49 23.82 170.91C23.82 164.33 18.49 159 11.91 159Z"></path><path  id="Ellipse 49" style="fill:#8BB2FF; opacity:1;" d="M194.53,326c-3.054,0 -5.53,2.476 -5.53,5.53c0,3.054 2.476,5.53 5.53,5.53c3.054,0 5.53,-2.476 5.53,-5.53c0,-3.054 -2.476,-5.53 -5.53,-5.53zM194.53,318c7.472,0 13.53,6.058 13.53,13.53c0,7.472 -6.058,13.53 -13.53,13.53c-7.472,0 -13.53,-6.058 -13.53,-13.53c0,-7.472 6.058,-13.53 13.53,-13.53z"></path><g id="Star 1" filter="url(#filter_9)"><path id="Star 1" fill-rule="evenodd" style="fill:#8BB2FF" opacity="1" d="M62.86 222.14L59.5 213L56.14 222.14L47 225.5L56.14 228.86L59.5 238L62.86 228.86L72 225.5L62.86 222.14Z"></path></g><path id="Star 2" fill-rule="evenodd" style="fill:#8BB2FF" opacity="1" d="M393.57 265.59L388.58 252L383.59 265.59L370 270.58L383.59 275.57L388.58 289.16L393.57 275.57L407.16 270.58L393.57 265.59Z"></path><path id="Rectangle 38" fill-rule="evenodd" fill="url(#linear_2)" opacity="1" d="M100 370L309 370C320.05 370 329 361.05 329 350L329 59C329 47.95 320.05 39 309 39L100 39C88.95 39 80 47.95 80 59L80 350C80 361.05 88.95 370 100 370Z"></path><g id="Star 3" filter="url(#filter_13)"><path id="Star 3" fill-rule="evenodd" style="fill:#8BB2FF" opacity="1" d="M128.41 34.37L122.39 18L116.37 34.37L100 40.39L116.37 46.41L122.39 62.78L128.41 46.41L144.78 40.39L128.41 34.37Z"></path></g></g><path id="Rectangle 39" fill-rule="evenodd" fill="url(#linear_3)" opacity="1" d="M146 127L277 127C278.59 127 280.12 126.37 281.24 125.24C282.37 124.12 283 122.59 283 121L283 121C283 119.41 282.37 117.88 281.24 116.76C280.12 115.63 278.59 115 277 115L146 115C144.41 115 142.88 115.63 141.76 116.76C140.63 117.88 140 119.41 140 121L140 121C140 122.59 140.63 124.12 141.76 125.24C142.88 126.37 144.41 127 146 127Z"></path><path id="Rectangle 40" fill-rule="evenodd" style="fill:#94BAFF" opacity="1" d="M146 165L215 165C216.59 165 218.12 164.37 219.24 163.24C220.37 162.12 221 160.59 221 159L221 159C221 157.41 220.37 155.88 219.24 154.76C218.12 153.63 216.59 153 215 153L146 153C144.41 153 142.88 153.63 141.76 154.76C140.63 155.88 140 157.41 140 159L140 159C140 160.59 140.63 162.12 141.76 163.24C142.88 164.37 144.41 165 146 165Z"></path><path id="Rectangle 41" fill-rule="evenodd" fill="url(#linear_4)" opacity="1" d="M146 203L304 203C305.59 203 307.12 202.37 308.24 201.24C309.37 200.12 310 198.59 310 197L310 197C310 195.41 309.37 193.88 308.24 192.76C307.12 191.63 305.59 191 304 191L146 191C144.41 191 142.88 191.63 141.76 192.76C140.63 193.88 140 195.41 140 197L140 197C140 198.59 140.63 200.12 141.76 201.24C142.88 202.37 144.41 203 146 203Z"></path><path id="Rectangle 42" fill-rule="evenodd" style="fill:#94BAFF" opacity="1" d="M146 241L270 241C271.59 241 273.12 240.37 274.24 239.24C275.37 238.12 276 236.59 276 235L276 235C276 233.41 275.37 231.88 274.24 230.76C273.12 229.63 271.59 229 270 229L146 229C144.41 229 142.88 229.63 141.76 230.76C140.63 231.88 140 233.41 140 235L140 235C140 236.59 140.63 238.12 141.76 239.24C142.88 240.37 144.41 241 146 241Z"></path><path id="Rectangle 43" fill-rule="evenodd" style="fill:#94BAFF" opacity="1" d="M146 279L270 279C271.59 279 273.12 278.37 274.24 277.24C275.37 276.12 276 274.59 276 273L276 273C276 271.41 275.37 269.88 274.24 268.76C273.12 267.63 271.59 267 270 267L146 267C144.41 267 142.88 267.63 141.76 268.76C140.63 269.88 140 271.41 140 273L140 273C140 274.59 140.63 276.12 141.76 277.24C142.88 278.37 144.41 279 146 279Z"></path><path id="Rectangle 44" fill-rule="evenodd" style="fill:#94BAFF" opacity="1" d="M146 317L226 317C227.59 317 229.12 316.37 230.24 315.24C231.37 314.12 232 312.59 232 311L232 311C232 309.41 231.37 307.88 230.24 306.76C229.12 305.63 227.59 305 226 305L146 305C144.41 305 142.88 305.63 141.76 306.76C140.63 307.88 140 309.41 140 311L140 311C140 312.59 140.63 314.12 141.76 315.24C142.88 316.37 144.41 317 146 317Z"></path><g opacity="1"  transform="translate(185.999267578125 316.11761474609375)  rotate(0)"><path id="Ellipse 52" fill-rule="evenodd" style="fill:#F6F9FF" opacity="1" d="M32.655 -56.5601C14.62 -25.3226 25.3226 14.62 56.5601 32.655C87.7977 50.69 127.74 39.9874 145.775 8.74988C163.81 -22.4877 153.108 -62.4302 121.87 -80.4652C90.6326 -98.5002 50.69 -87.7977 32.655 -56.5601Z"></path><path  id="Ellipse 52" style="fill:#538FFF; opacity:1;" d="M44.7794,-49.5601c-14.1689,24.5412 -5.7605,55.92188 18.7807,70.0907c24.5412,14.1689 55.9219,5.7605 70.0909,-18.78072c14.169,-24.54118 5.76,-55.92188 -18.781,-70.09078c-24.5411,-14.1688 -55.9218,-5.7604 -70.0906,18.7808zM20.5306,-63.5601c21.9009,-37.9329 70.4061,-50.9299 108.3394,-29.0295c37.933,21.9009 50.93,70.4061 29.03,108.3395c-21.901,37.9334 -70.4065,50.9303 -108.3399,29.0295c-37.9334,-21.9009 -50.9303,-70.4061 -29.0295,-108.3395z"></path><path id="Rectangle 45" fill-rule="evenodd" style="fill:#538FFF" opacity="1" d="M208.487 45.5106L208.967 44.6792C211.452 40.375 209.976 34.8699 205.672 32.3849L150.099 0.299948C145.795 -2.18505 140.29 -0.709971 137.805 3.59417L137.325 4.42556C134.84 8.7297 136.315 14.2348 140.619 16.7198L196.192 48.8048C200.496 51.2898 206.001 49.8147 208.487 45.5106Z"></path><path id="Union" fill-rule="evenodd" style="fill:#FF4F75" opacity="1" d="M109.185,-10.5814c0.99,0.98995 1.548,2.32639 1.541,3.71939c0.007,1.393 -0.544,2.7365 -1.534,3.72645c-0.99,0.98995 -2.327,1.54856 -3.727,1.54856c-1.4,0 -2.736,-0.55861 -3.726,-1.54856l-13.0356,-13.03554l-13.0355,13.03547c-0.9899,0.98995 -2.3263,1.54856 -3.7193,1.54149c-1.393,0.00707 -2.7365,-0.54447 -3.7265,-1.53442c-0.99,-0.98995 -1.5486,-2.32638 -1.5486,-3.72645c0,-1.40007 0.5586,-2.7365 1.5486,-3.72649l13.0354,-13.0354l-13.0425,-13.0426c-0.99,-0.9899 -1.5415,-2.3334 -1.5345,-3.7264c-0.007,-1.393 0.5516,-2.7295 1.5415,-3.7194c2.0506,-2.0506 5.3882,-2.0506 7.4388,0l13.0426,13.0426l13.0426,-13.0427c0.99,-0.9899 2.333,-1.5415 3.726,-1.5344c1.393,-0.0071 2.73,0.5515 3.72,1.5415c2.05,2.0506 2.05,5.3881 0,7.4387l-13.0428,13.0427z"></path></g><path id="Polygon 6" fill-rule="evenodd" style="fill:#8CB3FF" opacity="1" d="M53.1093 317.787L57.1417 332.836C57.4187 333.869 58.2255 334.678 59.2635 334.959C60.3016 335.24 61.4028 334.945 62.1613 334.182L73.1851 323.164C73.9437 322.401 74.238 321.298 73.9611 320.264C73.6841 319.231 72.8773 318.422 71.8392 318.141L56.7831 314.11C55.745 313.83 54.6438 314.125 53.8853 314.887C53.1267 315.649 52.8324 316.753 53.1093 317.787Z"></path></g><defs><linearGradient id="linear_0" x1="50%" y1="0%" x2="51%" y2="100%" gradientUnits="objectBoundingBox"><stop offset="0" stop-color="#FFFFFF" stop-opacity="0" /><stop offset="1" stop-color="#D9E8FF" stop-opacity="1" /></linearGradient><linearGradient id="linear_1" x1="50%" y1="0%" x2="51%" y2="100%" gradientUnits="objectBoundingBox"><stop offset="0" stop-color="#8CB3FF" stop-opacity="1" /><stop offset="1" stop-color="#8BB2FF" stop-opacity="1" /></linearGradient><filter id="filter_9" x="43" y="209" width="33" height="33" filterUnits="userSpaceOnUse" color-interpolation-filters="sRGB"><feFlood flood-opacity="0" result="BackgroundImageFix"/>
          <feBlend mode="normal" in="SourceGraphic" in2="BackgroundImageFix" result="shape"/>
          <feGaussianBlur stdDeviation="2" result="effect1_foregroundBlur" /></filter><linearGradient id="linear_2" x1="2.2088355419910446%" y1="1.3595168387118495%" x2="99.99999878071407%" y2="98.94259831813055%" gradientUnits="objectBoundingBox"><stop offset="0" stop-color="#E3EBFF" stop-opacity="1" /><stop offset="0.484375" stop-color="#F5F9FF" stop-opacity="1" /><stop offset="0.9739583134651184" stop-color="#7AA7FF" stop-opacity="1" /></linearGradient><filter id="filter_13" x="96" y="14" width="52.78" height="52.78" filterUnits="userSpaceOnUse" color-interpolation-filters="sRGB"><feFlood flood-opacity="0" result="BackgroundImageFix"/>
          <feBlend mode="normal" in="SourceGraphic" in2="BackgroundImageFix" result="shape"/>
          <feGaussianBlur stdDeviation="2" result="effect1_foregroundBlur" /></filter><linearGradient id="linear_3" x1="0%" y1="50.00015870513437%" x2="100%" y2="50.00015870513437%" gradientUnits="objectBoundingBox"><stop offset="0" stop-color="#94BAFF" stop-opacity="1" /><stop offset="1" stop-color="#94BAFF" stop-opacity="0" /></linearGradient><linearGradient id="linear_4" x1="1.4705887902366905%" y1="50.00020152058937%" x2="101.7647061559781%" y2="50.00020152058937%" gradientUnits="objectBoundingBox"><stop offset="0" stop-color="#94BAFF" stop-opacity="1" /><stop offset="1" stop-color="#94BAFF" stop-opacity="0" /></linearGradient></defs></svg>